<?xml version="1.0" encoding="UTF-8"?>
<svg width="500" height="250" version="1.1" viewBox="0 0 132.29 66.146" xmlns="http://www.w3.org/2000/svg">
 <g transform="translate(0 -230.85)">
  <rect y="230.85" width="132.29" height="66.146" rx="1.3229" ry="1.3229" fill="#8d8d8d" opacity=".99"/>
  <path d="m66.146 252.21q1.1689 0 1.9989 0.83 0.83 0.83 0.83 1.9989t-0.83 1.9989q-0.83 0.83-1.9989 0.83-1.1689 0-1.9989-0.83-0.83-0.82999-0.83-1.9989t0.83-1.9989q0.83-0.83 1.9989-0.83zm6.915-4.0861q1.0412 0 1.7779 0.73668 0.73668 0.73669 0.73668 1.7779v8.8009q0 1.0412-0.73668 1.7779-0.73668 0.73668-1.7779 0.73668h-13.83q-1.0412 0-1.7779-0.73668-0.73668-0.73669-0.73668-1.7779v-8.8009q0-1.0412 0.73668-1.7779 0.73668-0.73668 1.7779-0.73668h2.2002l0.50094-1.3358q0.18663-0.4813 0.68266-0.83t1.0166-0.3487h5.0291q0.52059 0 1.0166 0.3487 0.49603 0.3487 0.68266 0.83l0.50094 1.3358zm-6.915 11.315q1.8172 0 3.1088-1.2917 1.2917-1.2916 1.2917-3.1088 0-1.8172-1.2917-3.1088-1.2917-1.2916-3.1088-1.2916-1.8172 0-3.1088 1.2916-1.2917 1.2916-1.2917 3.1088 0 1.8172 1.2917 3.1088 1.2917 1.2917 3.1088 1.2917z" fill="#fff" stroke-width=".0098224"/>
  <text x="66.281433" y="274.46127" fill="#ffffff" font-family="'Open Sans'" font-size="6.1712px" font-weight="bold" letter-spacing="0px" stroke-width=".15428" text-anchor="middle" word-spacing="0px" style="line-height:1.25" xml:space="preserve"><tspan x="66.281433" y="274.46127" text-align="center">An awesome picture</tspan><tspan x="66.281433" y="282.1832" text-align="center">here</tspan></text>
 </g>
</svg>
